<svg xmlns="http://www.w3.org/2000/svg" xmlns:xlink="http://www.w3.org/1999/xlink" version="1.1" x="0px" y="0px" viewBox="0 0 100 100" enable-background="new 0 0 100 100" xml:space="preserve"><path d="M30.135,75.206c0,1.988,1.617,3.599,3.611,3.599h32.508c2.002,0,3.618-1.61,3.618-3.599V38.164H30.135V75.206z   M58.798,41.733h5.6v29.955c0,1.546-1.256,2.796-2.795,2.796c-1.549,0-2.804-1.25-2.804-2.796V41.733z M47.204,41.733h5.604v29.955  c0,1.546-1.254,2.796-2.802,2.796s-2.802-1.25-2.802-2.796V41.733z M35.527,41.733h5.596v29.955c0,1.546-1.255,2.796-2.798,2.796  s-2.797-1.25-2.797-2.796V41.733z"></path><path d="M69.864,25.046H55.683v-2.052c0,0-0.064-1.799-1.87-1.799h-7.745c-1.804,0-1.742,1.799-1.742,1.799v2.052h-14.19  c-1.993,0-3.612,1.613-3.612,3.601v5.919h46.954v-5.919C73.477,26.659,71.859,25.046,69.864,25.046z"></path></svg>